<svg width="40" height="40" viewBox="0 0 40 40" fill="none" xmlns="http://www.w3.org/2000/svg">
<path d="M23.3334 30.0001V10.0001C23.3334 9.11603 22.9822 8.26818 22.3571 7.64306C21.7319 7.01794 20.8841 6.66675 20 6.66675H6.66671C5.78265 6.66675 4.93481 7.01794 4.30968 7.64306C3.68456 8.26818 3.33337 9.11603 3.33337 10.0001V28.3334C3.33337 28.7754 3.50897 29.1994 3.82153 29.5119C4.13409 29.8245 4.55801 30.0001 5.00004 30.0001H8.33337" stroke="black" stroke-width="2" stroke-linecap="round" stroke-linejoin="round"/>
<path d="M25 30H15" stroke="black" stroke-width="2" stroke-linecap="round" stroke-linejoin="round"/>
<path d="M31.6667 29.9999H35C35.4421 29.9999 35.866 29.8243 36.1786 29.5118C36.4911 29.1992 36.6667 28.7753 36.6667 28.3333V22.2499C36.666 21.8717 36.5367 21.5049 36.3 21.2099L30.5 13.9599C30.3442 13.7647 30.1464 13.6071 29.9214 13.4986C29.6964 13.3901 29.4498 13.3336 29.2 13.3333H23.3334" stroke="black" stroke-width="2" stroke-linecap="round" stroke-linejoin="round"/>
<path d="M28.3333 33.3334C30.1743 33.3334 31.6667 31.841 31.6667 30.0001C31.6667 28.1591 30.1743 26.6667 28.3333 26.6667C26.4924 26.6667 25 28.1591 25 30.0001C25 31.841 26.4924 33.3334 28.3333 33.3334Z" stroke="black" stroke-width="2" stroke-linecap="round" stroke-linejoin="round"/>
<path d="M11.6667 33.3334C13.5077 33.3334 15 31.841 15 30.0001C15 28.1591 13.5077 26.6667 11.6667 26.6667C9.82576 26.6667 8.33337 28.1591 8.33337 30.0001C8.33337 31.841 9.82576 33.3334 11.6667 33.3334Z" stroke="black" stroke-width="2" stroke-linecap="round" stroke-linejoin="round"/>
</svg>
